<?xml version="1.0" encoding="utf-8"?>
<!-- Generator: Adobe Illustrator 21.1.0, SVG Export Plug-In . SVG Version: 6.00 Build 0)  -->
<svg version="1.1" id="Calque_1" xmlns="http://www.w3.org/2000/svg" xmlns:xlink="http://www.w3.org/1999/xlink" x="0px" y="0px"
	 viewBox="0 0 432 432" style="enable-background:new 0 0 432 432;" xml:space="preserve">
<style type="text/css">
	.st0{fill:#EFC9AF;}
	.st1{fill:#C69C6C;}
	.st2{fill:#020203;}
	.st3{fill:#603914;}
	.st4{fill:#C1292E;}
	.st5{fill:#A67D52;}
	.st6{fill:#343434;}
	.st7{fill:#C7B29A;}
	.st8{fill:#754D24;}
	.st9{fill:#412413;}
	.st10{fill:#1B1B1B;}
	.st11{fill:#9E1460;}
	.st12{fill:#E7267A;}
	.st13{fill:#998675;}
	.st14{fill:#676767;}
	.st15{fill:#BEC1A5;}
	.st16{fill:#8D7968;}
	.st17{fill:#A6A184;}
	.st18{fill:#5B4841;}
	.st19{fill:#C1A07F;}
	.st20{fill:#72403F;}
	.st21{fill:#AA8767;}
	.st22{fill:#D6B394;}
	.st23{fill:#A34F4D;}
	.st24{fill:#B47B61;}
	.st25{fill:#E5C292;}
	.st26{fill:#B4AFA8;}
	.st27{fill:#9E9A98;}
	.st28{fill:#F39323;}
	.st29{fill:#F9B03D;}
	.st30{fill:#50B162;}
	.st31{fill:#106B40;}
	.st32{fill:#8C633A;}
	.st33{fill:#231F20;}
	.st34{fill:#2C2F32;}
	.st35{fill:#E52328;}
	.st36{fill:#C2C3C3;}
	.st37{fill:#2DABE3;}
	.st38{fill:#F9EA31;}
	.st39{fill:#E52629;}
	.st40{fill:#746458;}
	.st41{fill:#0D71B9;}
	.st42{fill:#E52521;}
	.st43{fill:#F6D9A7;}
	.st44{fill:#F4A5A6;}
	.st45{fill:#6E6F70;}
	.st46{fill:#929497;}
	.st47{fill:#F29A26;}
	.st48{fill:#E0C399;}
	.st49{fill:#F9CBCC;}
	.st50{fill:#EBDA8C;}
	.st51{fill:#30358C;}
	.st52{fill:#F6DEB8;}
	.st53{fill:#FFFFFF;}
	.st54{fill:#959FA1;}
	.st55{fill:#6A737A;}
	.st56{fill:#6CC0A9;}
	.st57{fill:#2C7179;}
	.st58{fill:#F2F2F2;}
	.st59{fill:#D83747;}
	.st60{fill:#C92C3F;}
	.st61{fill:#E67525;}
	.st62{fill:#FFD471;}
	.st63{fill:#F0832C;}
	.st64{fill:#90CDBC;}
	.st65{fill:#1E1B3C;}
	.st66{fill:#3C3C3B;}
	.st67{fill:#E94E1B;}
	.st68{fill:#BE1622;}
	.st69{fill:#665F4A;}
	.st70{fill:#3A3320;}
	.st71{fill:#13110C;}
	.st72{fill:#EDECED;}
	.st73{fill:#24211E;}
	.st74{fill:#DBD9DA;}
	.st75{fill:#D01419;}
	.st76{fill:#E1E0E0;}
	.st77{fill:#ECECEC;}
	.st78{fill:#F8F8F9;}
	.st79{fill:#6A6621;}
	.st80{fill:#89454C;}
	.st81{fill:#CBC135;}
	.st82{fill:#F8C8CB;}
	.st83{fill:#C45853;}
	.st84{fill:#729BA5;}
	.st85{fill:#F8AB00;}
	.st86{fill:#3B3835;}
	.st87{fill:#FAD3D7;}
	.st88{fill:#ECBABB;}
	.st89{fill:#F8CFB4;}
	.st90{fill:#844C16;}
	.st91{fill:#D49F61;}
	.st92{fill:#55514F;}
	.st93{fill:#B57D44;}
	.st94{fill:#FCE1E4;}
	.st95{fill:#D5D4D4;}
	.st96{fill:#B92932;}
	.st97{fill:#97C01E;}
	.st98{fill:#00AED3;}
	.st99{fill:#FFCE00;}
	.st100{fill:#E30613;}
	.st101{fill:#F28E36;}
	.st102{fill:#9B6228;}
	.st103{fill:#F6A753;}
	.st104{fill:#CB3749;}
	.st105{fill:#E4E1E1;}
	.st106{fill:#FDEA00;}
	.st107{fill:#53BFCC;}
	.st108{fill:#C2171F;}
	.st109{fill:#EA5139;}
	.st110{fill:#0098B0;}
	.st111{fill:#F28B00;}
	.st112{fill:#898584;}
	.st113{fill:#FAB84F;}
	.st114{fill:#E74310;}
	.st115{fill:#CC5E16;}
	.st116{fill:#00A33A;}
	.st117{fill:#F18600;}
	.st118{fill:#2C2523;}
	.st119{fill:#006633;}
	.st120{fill:#063141;}
	.st121{fill:#1488A9;}
	.st122{fill:#5CBCB8;}
	.st123{fill:#00472A;}
	.st124{fill:#ECC876;}
	.st125{fill:#EBA700;}
	.st126{fill:#F4E3BC;}
	.st127{fill:#BEBBBB;}
	.st128{fill:#A29F9D;}
	.st129{fill:#72C4BE;}
	.st130{fill:#DACCA3;}
	.st131{fill:#AAC5DD;}
	.st132{fill:#1B6DA2;}
	.st133{fill:#F9B233;}
	.st134{fill:#F39200;}
	.st135{fill:#5E5957;}
	.st136{fill:#BACFDD;}
	.st137{fill:#DBC6AF;}
	.st138{fill:#B17F4A;}
	.st139{fill:#467A97;}
	.st140{fill:#95C11F;}
	.st141{fill:#1D71B8;}
	.st142{fill:#2FAC66;}
	.st143{fill:#00A19A;}
	.st144{fill:#0B3958;}
	.st145{fill:#3AAA35;}
	.st146{fill:#1B4B64;}
	.st147{fill:none;}
	.st148{fill:#EBD53E;}
	.st149{fill:#EFF0F1;}
	.st150{fill:#F1BE00;}
	.st151{fill:#DFA600;}
	.st152{fill:#DAEEEE;}
	.st153{fill:#E9E7EA;}
	.st154{fill:#DE0B15;}
	.st155{fill:#AA1918;}
	.st156{fill:#76232F;}
	.st157{fill:#DC0C1F;}
	.st158{fill:#DC3015;}
	.st159{fill:#AA7F47;}
	.st160{fill:#DAAC71;}
	.st161{fill:#342D45;}
	.st162{fill:#F6F5F9;}
	.st163{fill:#1B1814;}
	.st164{fill:#E03D13;}
	.st165{fill:#BF2B17;}
	.st166{fill:#F5F0EF;}
	.st167{fill:#F19500;}
	.st168{fill:#D8870D;}
	.st169{fill:#31AD71;}
	.st170{fill:#2F7C55;}
	.st171{fill:#1A1814;}
	.st172{fill:#4B4845;}
	.st173{fill:#FAEEF0;}
	.st174{fill:#D19B09;}
	.st175{fill:#F1D7B5;}
	.st176{fill:#FCFCFD;}
	.st177{fill:#93BEC8;}
	.st178{fill:#D8D3D2;}
	.st179{fill:#4D4843;}
	.st180{fill:#4EABB8;}
	.st181{fill:#383835;}
	.st182{fill:#D5DADB;}
	.st183{fill:#9EBABB;}
	.st184{fill:#B4181C;}
	.st185{fill:#DD6A10;}
	.st186{fill:#F0F0F1;}
	.st187{fill:#753811;}
	.st188{fill:#DB0D1B;}
	.st189{fill:#DA213C;}
	.st190{fill:#BCDBB6;}
	.st191{fill:#9A9999;}
	.st192{fill:#4DA354;}
	.st193{fill:#DBBC9A;}
	.st194{fill:#A48A7B;}
	.st195{fill:#C5C2C2;}
	.st196{fill:#CC1417;}
	.st197{fill:#44403D;}
	.st198{fill:#F8D000;}
	.st199{fill:#974493;}
	.st200{fill:#F0811A;}
	.st201{fill:#58B034;}
	.st202{fill:#5BC4E9;}
	.st203{fill:#F8D71A;}
	.st204{fill:#E52921;}
	.st205{fill:#DDAE76;}
	.st206{fill:#F9DCBB;}
	.st207{fill:#CC6F22;}
	.st208{fill:#9CCDC5;}
	.st209{fill:#49998B;}
	.st210{fill:#9F3148;}
	.st211{fill:#DDA519;}
	.st212{fill:#EDC4A2;}
	.st213{fill:#5F3B17;}
	.st214{fill:#191517;}
	.st215{fill:#D9A67E;}
	.st216{fill:#C47713;}
	.st217{fill:#A91917;}
	.st218{fill:#DBC8CE;}
	.st219{fill:#9C6E80;}
	.st220{fill:#BC738E;}
	.st221{fill:#1E1E1C;}
	.st222{fill:#EAEAEA;}
	.st223{fill:#4E4D4D;}
	.st224{fill:#E7E6E6;}
	.st225{fill:#FED063;}
	.st226{fill:#FCBF0A;}
	.st227{fill:#AA5A9F;}
	.st228{fill:#833081;}
	.st229{fill:#882C87;}
	.st230{fill:#A4B639;}
	.st231{fill:#B9C95E;}
	.st232{fill:#D690BB;}
	.st233{fill:#AB6F97;}
</style>
<g>
	<g>
		<g>
			<path class="st224" d="M141.6,243.2c-1.9,0-3.4,1.5-3.4,3.4v87.7c0,1.9,1.5,3.4,3.4,3.4s3.4-1.5,3.4-3.4v-87.7
				C145,244.8,143.5,243.2,141.6,243.2z"/>
			<circle class="st225" cx="139.1" cy="185.1" r="71.7"/>
			<path class="st226" d="M218.4,171.3c-4.8-3.1-10.7-1.6-16-1c-42.8,5.3-87.3,9.5-130,7.1c-2.1-1.1-4.4-0.8-6.8-0.3
				c-2.5,0.2-7.3,2.1-9.8,5.9c-3.3,5-2.1,11.8,2.9,15.2c4.4,2.9,9.7,2.7,14.7,2.8c6.7,0.1,13.3,0.1,20,0.1
				c43.9-0.3,89.8-4.2,112.8-7.5c5-0.7,11.1-1.9,14.7-5.8C225.6,182.6,224,174.9,218.4,171.3z"/>
			<path class="st68" d="M161,270.3c-0.1-0.2-0.1-0.3-0.2-0.5c-4.5-8.9-10.4-3.5-16,3.6c-1.9-0.7-4-0.9-6.1-0.5
				c-3.6-4.5-4.8-5.8-6.1-6.6c-7.9-4.8-17.5,11.8-4.9,15.5c-9.1,6.9,0.8,17,7.9,6.8c3.8,2.4,8,1.5,11.3-1.2
				c6.7,11.7,18.7,1.9,9.3-5.6C162,280.1,163.5,275.7,161,270.3z"/>
		</g>
		<g>
			<ellipse cx="169.4" cy="217.5" rx="5.1" ry="11.4"/>
			<ellipse cx="107" cy="221.7" rx="5.1" ry="11.4"/>
			<ellipse cx="142" cy="243.7" rx="8" ry="3"/>
		</g>
	</g>
	<g>
		<path class="st224" d="M281.4,222.6c-1.8-0.5-3.7,0.5-4.2,2.3l-24.4,84.2c-0.5,1.8,0.5,3.7,2.3,4.2c1.8,0.5,3.7-0.5,4.2-2.3
			l24.4-84.2C284.2,225,283.2,223.1,281.4,222.6z"/>
		
			<ellipse transform="matrix(0.278 -0.9606 0.9606 0.278 53.6194 403.3527)" class="st227" cx="295.1" cy="166" rx="71.7" ry="71.7"/>
		<path class="st228" d="M375.1,174.8c-3.8-4.3-9.8-4.5-15.1-5.4c-42.5-6.8-86.5-15.2-126.8-29.4c-1.7-1.6-4.1-2-6.5-2.2
			c-2.4-0.5-7.6,0-11,2.9c-4.6,3.9-5.3,10.7-1.4,15.4c3.4,4,8.5,5.3,13.4,6.8c6.4,1.9,12.7,3.8,19.1,5.6
			c42.3,11.9,87.4,21,110.5,24.1c5,0.7,11.2,1.3,15.7-1.5C378.9,187.7,379.5,179.8,375.1,174.8z"/>
		<g>
			<path class="st228" d="M249.3,135.4c9.8,0,9.8-15.2,0-15.2C239.5,120.3,239.5,135.4,249.3,135.4z"/>
			<path class="st228" d="M279.2,105.5c-9.8,0-9.8,15.2,0,15.2C289,120.7,289,105.5,279.2,105.5z"/>
			<path class="st228" d="M283,132.9c-9.8,0-9.8,15.2,0,15.2C292.8,148.1,292.8,132.9,283,132.9z"/>
			<path class="st228" d="M309.2,112.7c-9.8,0-9.8,15.2,0,15.2C318.9,127.9,319,112.7,309.2,112.7z"/>
			<path class="st228" d="M346.7,140.9c-9.8,0-9.8,15.2,0,15.2C356.5,156.1,356.5,140.9,346.7,140.9z"/>
			<path class="st228" d="M332.4,195.3c-9.8,0-9.8,15.2,0,15.2C342.1,210.5,342.1,195.3,332.4,195.3z"/>
			<path class="st228" d="M247.6,186.2c0.9-0.3,1.8-0.8,2.4-1.6c0.7-0.7,1.3-1.5,1.6-2.4c0.5-0.9,0.7-1.9,0.7-2.9
				c-0.1-2-0.7-4-2.2-5.4c-1.5-1.4-3.3-2.2-5.4-2.2c-0.3,0-0.6,0-0.8,0c-1,0-2,0.2-2.9,0.7c-0.9,0.3-1.8,0.8-2.4,1.6
				c-0.7,0.7-1.3,1.5-1.6,2.4c-0.5,0.9-0.7,1.9-0.7,2.9c0.1,2,0.7,4,2.2,5.4c1.5,1.4,3.3,2.2,5.4,2.2c0.3,0,0.6,0,0.8,0
				C245.7,186.9,246.7,186.7,247.6,186.2z"/>
			<path class="st228" d="M321.4,155.7c9.8,0,9.8-15.2,0-15.2C311.6,140.5,311.6,155.7,321.4,155.7z"/>
			<path class="st228" d="M251.8,196.2c-9.8,0-9.8,15.2,0,15.2C261.6,211.3,261.6,196.2,251.8,196.2z"/>
			<path class="st228" d="M336.6,130.4c9.8,0,9.8-15.2,0-15.2C326.8,115.2,326.8,130.4,336.6,130.4z"/>
			<path class="st228" d="M316.8,211.3c-9.8,0-9.8,15.2,0,15.2C326.5,226.5,326.5,211.3,316.8,211.3z"/>
		</g>
		<path class="st229" d="M293.4,253.7c0-0.2,0-0.4-0.1-0.5c-1.7-9.8-8.9-6.5-16.4-1.4c-1.6-1.3-3.6-2.1-5.7-2.3
			c-2.1-5.4-2.8-7-3.9-8.2c-6.1-6.9-20.2,6-9.3,13.4c-10.7,3.8-4.3,16.5,5.5,8.9c2.9,3.5,7.2,3.9,11.2,2.3
			c2.8,13.2,17.3,7.5,10.6-2.6C291.4,263.3,294.2,259.6,293.4,253.7z"/>
		<g>
			<ellipse cx="269.9" cy="192.9" rx="5.1" ry="11.4"/>
			<ellipse transform="matrix(0.4312 -0.9023 0.9023 0.4312 -8.9061 388.4704)" cx="303.6" cy="201.3" rx="11.4" ry="5.1"/>
			<path d="M280,219c-5.4,0-5.4,8.4,0,8.4C285.5,227.4,285.5,219,280,219z"/>
		</g>
	</g>
</g>
</svg>
