<?xml version="1.0" encoding="UTF-8" standalone="no"?>
<!-- Generator: Adobe Illustrator 17.1.0, SVG Export Plug-In . SVG Version: 6.00 Build 0)  -->

<svg
   xmlns:dc="http://purl.org/dc/elements/1.1/"
   xmlns:cc="http://creativecommons.org/ns#"
   xmlns:rdf="http://www.w3.org/1999/02/22-rdf-syntax-ns#"
   xmlns:svg="http://www.w3.org/2000/svg"
   xmlns="http://www.w3.org/2000/svg"
   xmlns:sodipodi="http://sodipodi.sourceforge.net/DTD/sodipodi-0.dtd"
   xmlns:inkscape="http://www.inkscape.org/namespaces/inkscape"
   version="1.1"
   id="Main logo"
   x="0px"
   y="0px"
   viewBox="0 0 250 250"
   enable-background="new 0 0 895.8 515.9"
   xml:space="preserve"
   inkscape:version="0.91 r13725"
   sodipodi:docname="favicon.svg"
   width="256"
   height="256"
   inkscape:export-filename="/home/maso/git/pluf-spa/digidoci-employee/app/images/apple-touch-icon.png"
   inkscape:export-xdpi="93.160004"
   inkscape:export-ydpi="93.160004"><metadata
     id="metadata109"><rdf:RDF><cc:Work
         rdf:about=""><dc:format>image/svg+xml</dc:format><dc:type
           rdf:resource="http://purl.org/dc/dcmitype/StillImage" /></cc:Work></rdf:RDF></metadata><defs
     id="defs107" /><sodipodi:namedview
     pagecolor="#ffffff"
     bordercolor="#666666"
     borderopacity="1"
     objecttolerance="10"
     gridtolerance="10"
     guidetolerance="10"
     inkscape:pageopacity="0"
     inkscape:pageshadow="2"
     inkscape:window-width="1366"
     inkscape:window-height="703"
     id="namedview105"
     showgrid="false"
     inkscape:zoom="0.6608618"
     inkscape:cx="-58.467229"
     inkscape:cy="-77.246156"
     inkscape:window-x="0"
     inkscape:window-y="0"
     inkscape:window-maximized="1"
     inkscape:current-layer="Main logo" /><path
     style="fill:#ff0000;fill-opacity:1;stroke:none;stroke-width:1.29297197;stroke-opacity:1"
     id="path4288"
     sodipodi:type="arc"
     sodipodi:cx="56.43037"
     sodipodi:cy="31.481779"
     sodipodi:rx="26.793861"
     sodipodi:ry="31.429996"
     sodipodi:start="3.150991"
     sodipodi:end="0.00051108386"
     d="M 29.637692,31.186393 A 26.793861,31.429996 0 0 1 56.563126,0.0521684 26.793861,31.429996 0 0 1 83.224228,31.497842"
     sodipodi:open="true" /><path
     style="fill:#449799"
     inkscape:connector-curvature="0"
     id="path35"
     d="m 228.71961,196.63788 c 12.06553,0 21.1928,-12.37531 20.25507,-27.56705 L 242.03545,58.034467 C 241.09771,42.842713 230.40755,30.38206 218.34204,30.296713 L 22.293201,29.699285 c -12.065505,0 -21.1927786,12.375306 -20.2550446,27.56706 L 8.977384,168.30269 c 0.937734,15.19176 11.627898,27.65242 23.693403,27.73777 l 196.048823,0.59742 z" /><polygon
     style="fill:#ffffff"
     id="polygon37"
     points="278.6,163.1 292.7,328.9 572.1,329.7 558.1,163.9 "
     transform="matrix(0.62515575,0,0,0.85346934,-141.74766,-97.126256)" /><g
     id="g4294"
     transform="matrix(1.0029995,0,0,1.0494832,-0.00591459,-9.6627525)"><path
       d="m 235.59019,199.39978 c 2.12965,25.76689 -14.23512,46.74295 -36.54052,46.87242 -22.30541,0.12958 -42.03279,-20.58762 -44.05039,-46.22501 -2.12964,-25.7669 14.23514,-46.74295 36.54052,-46.87243 22.19332,-0.25897 41.92074,20.45812 44.05039,46.22502 z"
       id="path43"
       inkscape:connector-curvature="0"
       style="fill:#449799" /><path
       d="m 213.62105,199.52924 c 1.00878,11.78286 -6.50108,21.23503 -16.58895,21.36451 -10.08789,0.1294 -19.16697,-9.32268 -20.06366,-21.10552 -1.00878,-11.78286 6.50107,-21.36451 16.58894,-21.36451 10.08789,0 19.16697,9.45217 20.06367,21.10552 z"
       id="path45"
       inkscape:connector-curvature="0"
       style="fill:#ffffff" /></g><path
     style="fill:#ffffff"
     inkscape:connector-curvature="0"
     id="path47"
     d="m 31.983117,117.26523 c 0.56264,7.76658 -3.625905,13.9969 -9.252306,14.08225 -5.626401,0.0855 -10.690163,-6.14498 -11.190287,-13.91155 -0.562641,-7.76657 3.625903,-13.9969 9.252304,-14.08223 5.626402,-0.0854 10.690163,6.14497 11.190289,13.91153 z" /><g
     id="g4298"
     transform="matrix(1.0029995,0,0,1.0494832,-0.00591459,-9.6627525)"><path
       d="m 141.19393,149.72843 c 0,6.81704 -5.47442,12.3946 -12.16539,12.3946 l -13.17918,0 c -6.69097,0 -12.16539,-5.57756 -12.16539,-12.3946 l 0,-71.268896 c 0,-6.817025 5.47442,-12.394593 12.16539,-12.394593 l 13.17918,0 c 6.69097,0 12.16539,5.577568 12.16539,12.394593 l 0,71.268896 z"
       id="path49"
       inkscape:connector-curvature="0"
       style="fill:#ed0f0f" /><path
       d="m 157.41446,94.985655 c 6.69097,0 12.16541,5.577565 12.16541,12.394595 l 0,13.42748 c 0,6.81702 -5.47444,12.3946 -12.16541,12.3946 l -69.95103,0 c -6.690971,0 -12.165401,-5.57758 -12.165401,-12.3946 l 0,-13.42748 c 0,-6.81703 5.47443,-12.394595 12.165401,-12.394595 l 69.95103,0 z"
       id="path51"
       inkscape:connector-curvature="0"
       style="fill:#ed0f0f" /></g><path
     style="fill:#ebeae8"
     inkscape:connector-curvature="0"
     id="path53"
     d="m 233.40829,130.75005 c 0.12505,2.38972 -1.12527,4.26735 -2.87571,4.26735 l 0,0 c -1.75043,0 -3.25081,-1.87763 -3.37583,-4.26735 l -2.62566,-40.966525 c -0.12503,-2.389715 1.12528,-4.267346 2.87571,-4.267346 l 0,0 c 1.75044,0 3.25081,1.877631 3.37584,4.267346 l 2.62565,40.966525 z" /><g
     id="g4290"
     transform="matrix(1.0029995,0,0,1.0494832,-0.00591459,-9.6627525)"><path
       d="m 105.79135,200.66025 c 2.12964,25.76689 -14.235133,46.74295 -36.540526,46.87242 -22.305414,0.12958 -42.032798,-20.58761 -44.050384,-46.22501 -2.129648,-25.7669 14.235128,-46.74295 36.540515,-46.87243 22.193319,-0.25896 41.920725,20.45813 44.050395,46.22502 z"
       id="path43-0"
       inkscape:connector-curvature="0"
       style="fill:#449799" /><path
       d="m 83.822199,200.78971 c 1.008774,11.78286 -6.501082,21.23504 -16.588949,21.36451 -10.087892,0.12941 -19.166966,-9.32268 -20.063665,-21.10552 -1.008774,-11.78286 6.501082,-21.36451 16.588944,-21.36451 10.087891,0 19.166971,9.45217 20.06367,21.10552 z"
       id="path45-8"
       inkscape:connector-curvature="0"
       style="fill:#ffffff" /></g></svg>