<?xml version="1.0" encoding="UTF-8" standalone="no"?>
<svg
   xmlns:dc="http://purl.org/dc/elements/1.1/"
   xmlns:cc="http://creativecommons.org/ns#"
   xmlns:rdf="http://www.w3.org/1999/02/22-rdf-syntax-ns#"
   xmlns:svg="http://www.w3.org/2000/svg"
   xmlns="http://www.w3.org/2000/svg"
   viewBox="0 0 534.01331 534.01331"
   height="534.01331"
   width="534.01331"
   xml:space="preserve"
   id="svg2"
   version="1.1"><metadata
     id="metadata8"><rdf:RDF><cc:Work
         rdf:about=""><dc:format>image/svg+xml</dc:format><dc:type
           rdf:resource="http://purl.org/dc/dcmitype/StillImage" /><dc:title></dc:title></cc:Work></rdf:RDF></metadata><defs
     id="defs6" /><g
     transform="matrix(1.3333333,0,0,-1.3333333,0,534.01333)"
     id="g10"><path
       d="m 200.1262,299.0151 c 89.08263,0 165.22493,-55.69241 195.39533,-134.19546 L 297.7893,127.2852 c -15.08519,39.25204 -53.12229,67.06167 -97.6631,67.06167 -44.6132,0 -82.64802,-27.80963 -97.73373,-67.06167 L 4.6577332,164.81964 C 34.90127,243.32269 110.97194,299.0151 200.1262,299.0151 v 0"
       style="fill:#e9e8e7;fill-opacity:1;fill-rule:evenodd;stroke:none;stroke-width:0.25221869"
       id="path20" /><path
       d="m 200.1262,299.0151 c 41.2544,0 79.78837,-11.93751 112.17577,-32.60178 l -57.6244,-87.43918 c -15.87212,9.79617 -34.60441,15.37273 -54.55137,15.37273 -44.6132,0 -82.64802,-27.80963 -97.73373,-67.06167 L 4.6577332,164.81964 C 34.90127,243.32269 110.97194,299.0151 200.1262,299.0151 v 0"
       style="fill:#9667ba;fill-opacity:1;fill-rule:evenodd;stroke:none;stroke-width:0.25221869"
       id="path22" /><path
       d="m 332.39119,296.58623 v 0 L 201.91342,71.733031 c -2.7164,-4.645363 -8.93711,-5.862066 -13.44149,-2.931033 v 0 c -4.50336,2.859151 -6.00407,9.010007 -2.93104,13.440481 l 146.8503,214.343751"
       style="fill:#100f0d;fill-opacity:1;fill-rule:evenodd;stroke:none;stroke-width:0.25221869"
       id="path24" /></g></svg>