<?xml version="1.0" encoding="UTF-8"?>
<!DOCTYPE svg PUBLIC "-//W3C//DTD SVG 1.1//EN" "http://www.w3.org/Graphics/SVG/1.1/DTD/svg11.dtd">
<!-- Creator: CorelDRAW X6 -->
<svg xmlns="http://www.w3.org/2000/svg" xml:space="preserve" width="8.5in" height="11in" version="1.1" style="shape-rendering:geometricPrecision; text-rendering:geometricPrecision; image-rendering:optimizeQuality; fill-rule:evenodd; clip-rule:evenodd"
viewBox="0 0 8500 11000"
 xmlns:xlink="http://www.w3.org/1999/xlink">
 <defs>
  <style type="text/css">
   <![CDATA[
    .fil0 {fill:none}
    .fil1 {fill:#E6E7E8}
    .fil3 {fill:#701E72}
    .fil2 {fill:#4B4B4D;fill-rule:nonzero}
   ]]>
  </style>
 </defs>
 <g id="Layer_x0020_1">
  <metadata id="CorelCorpID_0Corel-Layer"/>
  <g id="enbank.cdr">
   <rect class="fil0" x="116" y="-346" width="8268" height="11693"/>
   <rect class="fil1" x="116" y="208" width="2301" height="490"/>
   <polygon class="fil2" points="376,564 376,326 419,326 419,526 526,526 526,564 "/>
   <path id="1" class="fil2" d="M547 476c0,-26 7,-48 23,-65 15,-16 35,-25 61,-25 26,0 46,8 61,24 15,16 22,38 22,66 0,28 -7,50 -22,67 -15,16 -36,24 -61,24 -27,0 -48,-8 -62,-25 -15,-16 -22,-38 -22,-66zm42 0c0,39 14,58 42,58 12,0 22,-5 30,-15 7,-10 11,-24 11,-43 0,-37 -14,-56 -41,-56 -13,0 -23,5 -31,15 -7,10 -11,23 -11,41z"/>
   <path id="2" class="fil2" d="M734 609l25 -32c15,13 31,20 48,20 12,0 21,-2 29,-6 8,-3 11,-8 11,-14 0,-11 -8,-16 -25,-16 -4,0 -11,1 -20,2 -9,1 -16,2 -21,2 -28,0 -42,-10 -42,-31 0,-5 3,-11 7,-17 5,-5 10,-9 17,-12 -20,-13 -30,-31 -30,-54 0,-19 7,-34 20,-47 14,-12 31,-18 51,-18 16,0 29,3 39,9l16 -18 28 25 -19 14c7,10 10,22 10,36 0,20 -6,36 -18,47 -12,12 -28,18 -46,18 -3,0 -7,0 -12,-1l-6 0c-1,0 -4,1 -9,3 -5,2 -8,5 -8,7 0,5 4,7 12,7 3,0 9,-1 17,-3 8,-1 14,-2 20,-2 40,0 59,16 59,48 0,17 -8,31 -23,41 -16,10 -35,15 -58,15 -26,0 -51,-8 -72,-23zm40 -158c0,10 3,18 9,24 6,6 13,10 23,10 10,0 17,-3 23,-9 5,-6 7,-15 7,-25 0,-9 -2,-16 -8,-22 -6,-6 -13,-9 -22,-9 -9,0 -17,2 -23,8 -6,6 -9,14 -9,23z"/>
   <path id="3" class="fil2" d="M903 476c0,-26 7,-48 23,-65 15,-16 35,-25 61,-25 26,0 46,8 61,24 15,16 22,38 22,66 0,28 -7,50 -22,67 -15,16 -36,24 -61,24 -27,0 -48,-8 -62,-25 -15,-16 -22,-38 -22,-66zm42 0c0,39 14,58 42,58 12,0 22,-5 30,-15 7,-10 11,-24 11,-43 0,-37 -14,-56 -41,-56 -13,0 -23,5 -31,15 -7,10 -11,23 -11,41z"/>
   <path id="4" class="fil2" d="M1094 553l12 -30c6,4 14,8 23,11 9,3 17,5 24,5 13,0 23,-4 31,-11 8,-7 12,-16 12,-26 0,-8 -2,-16 -7,-23 -4,-7 -15,-14 -32,-22l-19 -9c-17,-8 -28,-17 -35,-27 -6,-11 -9,-23 -9,-38 0,-18 6,-32 19,-44 12,-12 28,-18 48,-18 27,0 45,5 55,13l-9 29c-5,-4 -11,-7 -20,-10 -9,-3 -17,-4 -25,-4 -11,0 -20,3 -26,9 -6,7 -10,15 -10,25 0,6 2,11 4,16 2,5 5,9 9,13 4,3 13,8 25,14l20 9c16,8 28,17 34,28 7,11 10,24 10,41 0,18 -7,33 -22,45 -14,13 -33,19 -57,19 -21,0 -40,-5 -55,-15z"/>
   <path id="5" class="fil2" d="M1252 476c0,-27 7,-48 21,-65 15,-16 34,-25 58,-25 25,0 44,8 58,24 14,16 20,38 20,66 0,28 -7,51 -21,67 -14,16 -33,24 -57,24 -25,0 -45,-8 -58,-24 -14,-17 -21,-39 -21,-67zm32 0c0,44 16,66 47,66 14,0 25,-6 33,-18 9,-11 13,-27 13,-48 0,-43 -16,-64 -46,-64 -14,0 -26,5 -34,17 -8,11 -13,27 -13,47z"/>
   <path id="6" class="fil2" d="M1471 390l0 111c0,27 12,40 35,40 10,0 20,-3 28,-9 9,-5 14,-12 17,-20l0 -122 31 0 0 174 -31 0 0 -24c-3,7 -10,13 -21,19 -10,5 -21,8 -31,8 -19,0 -33,-5 -43,-16 -11,-11 -16,-27 -16,-47l0 -114 31 0z"/>
   <path id="7" class="fil2" d="M1719 419c-7,-4 -14,-7 -21,-7 -10,0 -20,5 -28,15 -8,10 -13,23 -13,37l0 100 -31 0 0 -174 31 0 0 27c12,-20 29,-31 51,-31 5,0 13,1 24,3l-13 30z"/>
   <path id="8" class="fil2" d="M1886 404l-15 21c-3,-3 -9,-6 -17,-9 -8,-2 -16,-4 -24,-4 -17,0 -30,6 -40,18 -10,12 -15,28 -15,48 0,21 5,36 15,47 10,11 24,16 42,16 14,0 28,-5 42,-16l12 26c-16,11 -37,16 -61,16 -24,0 -44,-8 -59,-24 -16,-16 -24,-37 -24,-65 0,-27 8,-50 25,-66 16,-17 38,-26 66,-26 9,0 19,2 30,6 10,4 18,8 23,12z"/>
   <path id="9" class="fil2" d="M2066 480l-126 0c0,20 6,36 17,47 10,9 22,14 38,14 17,0 32,-5 44,-15l13 22c-5,5 -12,9 -22,12 -12,5 -26,7 -41,7 -22,0 -41,-7 -56,-22 -17,-16 -26,-39 -26,-66 0,-29 9,-52 27,-69 15,-16 34,-24 55,-24 25,0 44,7 59,21 13,14 20,32 20,54 0,7 -1,13 -2,19zm-75 -68c-14,0 -26,5 -35,14 -9,8 -14,19 -15,32l96 0c0,-13 -4,-24 -11,-32 -9,-9 -21,-14 -35,-14z"/>
   <path id="10" class="fil2" d="M2117 533c4,0 8,2 11,5 4,3 5,7 5,12 0,4 -1,8 -5,11 -3,4 -7,5 -11,5 -5,0 -8,-1 -12,-5 -3,-3 -4,-7 -4,-11 0,-5 1,-9 4,-12 4,-3 7,-5 12,-5z"/>
   <path id="11" class="fil2" d="M2196 404c3,0 6,1 9,3 2,3 4,6 4,9 0,4 -2,7 -4,10 -3,2 -6,3 -9,3 -4,0 -7,-1 -9,-3 -3,-3 -4,-6 -4,-10 0,-3 1,-6 4,-9 2,-2 5,-3 9,-3zm-12 160l0 -99 -16 0 0 -17 37 0 0 116 -21 0z"/>
   <path id="12" class="fil2" d="M2301 467c-4,-3 -9,-4 -13,-4 -8,0 -14,3 -19,10 -6,7 -9,15 -9,24l0 67 -20 0 0 -116 20 0 0 18c8,-14 19,-21 34,-21 4,0 9,1 16,2l-9 20z"/>
   <path class="fil3" d="M2839 3433c437,0 791,355 791,792 0,437 -354,791 -791,791 -437,0 -792,-354 -792,-791 0,-437 355,-792 792,-792zm1612 0l457 0 -894 4134 -458 0 895 -4134zm1913 0l-2200 4134 895 -4134 1305 0zm-4258 4134l2200 -4134 -894 4134 -1306 0zm3555 -1583c437,0 792,354 792,791 0,437 -355,792 -792,792 -437,0 -791,-355 -791,-792 0,-437 354,-791 791,-791z"/>
  </g>
 </g>
</svg>
