<?xml version="1.0" encoding="UTF-8"?>
<!DOCTYPE svg PUBLIC "-//W3C//DTD SVG 1.1//EN" "http://www.w3.org/Graphics/SVG/1.1/DTD/svg11.dtd">
<!-- Creator: CorelDRAW X6 -->
<svg xmlns="http://www.w3.org/2000/svg" xml:space="preserve" width="8.5in" height="11in" version="1.1" style="shape-rendering:geometricPrecision; text-rendering:geometricPrecision; image-rendering:optimizeQuality; fill-rule:evenodd; clip-rule:evenodd"
viewBox="0 0 8500 11000"
 xmlns:xlink="http://www.w3.org/1999/xlink">
 <defs>
  <style type="text/css">
   <![CDATA[
    .fil0 {fill:none}
    .fil1 {fill:#E6E7E8}
    .fil3 {fill:#29166F}
    .fil2 {fill:#4B4B4D;fill-rule:nonzero}
    .fil4 {fill:#29166F;fill-rule:nonzero}
   ]]>
  </style>
 </defs>
 <g id="Layer_x0020_1">
  <metadata id="CorelCorpID_0Corel-Layer"/>
  <g id="Saderat.cdr">
   <rect class="fil0" x="116" y="-346" width="8268" height="11693"/>
   <rect class="fil1" x="116" y="208" width="2301" height="490"/>
   <polygon class="fil2" points="376,564 376,326 419,326 419,526 526,526 526,564 "/>
   <path id="1" class="fil2" d="M547 476c0,-26 7,-48 23,-65 15,-16 35,-25 61,-25 26,0 46,8 61,24 15,16 22,38 22,66 0,28 -7,50 -22,67 -15,16 -36,24 -61,24 -27,0 -48,-8 -62,-25 -15,-16 -22,-38 -22,-66zm42 0c0,39 14,58 42,58 12,0 22,-5 30,-15 7,-10 11,-24 11,-43 0,-37 -14,-56 -41,-56 -13,0 -23,5 -31,15 -7,10 -11,23 -11,41z"/>
   <path id="2" class="fil2" d="M734 609l25 -32c15,13 31,20 48,20 12,0 21,-2 29,-6 8,-3 11,-8 11,-14 0,-11 -8,-16 -25,-16 -4,0 -11,1 -20,2 -9,1 -16,2 -21,2 -28,0 -42,-10 -42,-31 0,-5 3,-11 7,-17 5,-5 10,-9 17,-12 -20,-13 -30,-31 -30,-54 0,-19 7,-34 20,-47 14,-12 31,-18 51,-18 16,0 29,3 39,9l16 -18 28 25 -19 14c7,10 10,22 10,36 0,20 -6,36 -18,47 -12,12 -28,18 -46,18 -3,0 -7,0 -12,-1l-6 0c-1,0 -4,1 -9,3 -5,2 -8,5 -8,7 0,5 4,7 12,7 3,0 9,-1 17,-3 8,-1 14,-2 20,-2 40,0 59,16 59,48 0,17 -8,31 -23,41 -16,10 -35,15 -58,15 -26,0 -51,-8 -72,-23zm40 -158c0,10 3,18 9,24 6,6 13,10 23,10 10,0 17,-3 23,-9 5,-6 7,-15 7,-25 0,-9 -2,-16 -8,-22 -6,-6 -13,-9 -22,-9 -9,0 -17,2 -23,8 -6,6 -9,14 -9,23z"/>
   <path id="3" class="fil2" d="M903 476c0,-26 7,-48 23,-65 15,-16 35,-25 61,-25 26,0 46,8 61,24 15,16 22,38 22,66 0,28 -7,50 -22,67 -15,16 -36,24 -61,24 -27,0 -48,-8 -62,-25 -15,-16 -22,-38 -22,-66zm42 0c0,39 14,58 42,58 12,0 22,-5 30,-15 7,-10 11,-24 11,-43 0,-37 -14,-56 -41,-56 -13,0 -23,5 -31,15 -7,10 -11,23 -11,41z"/>
   <path id="4" class="fil2" d="M1094 553l12 -30c6,4 14,8 23,11 9,3 17,5 24,5 13,0 23,-4 31,-11 8,-7 12,-16 12,-26 0,-8 -2,-16 -7,-23 -4,-7 -15,-14 -32,-22l-19 -9c-17,-8 -28,-17 -35,-27 -6,-11 -9,-23 -9,-38 0,-18 6,-32 19,-44 12,-12 28,-18 48,-18 27,0 45,5 55,13l-9 29c-5,-4 -11,-7 -20,-10 -9,-3 -17,-4 -25,-4 -11,0 -20,3 -26,9 -6,7 -10,15 -10,25 0,6 2,11 4,16 2,5 5,9 9,13 4,3 13,8 25,14l20 9c16,8 28,17 34,28 7,11 10,24 10,41 0,18 -7,33 -22,45 -14,13 -33,19 -57,19 -21,0 -40,-5 -55,-15z"/>
   <path id="5" class="fil2" d="M1252 476c0,-27 7,-48 21,-65 15,-16 34,-25 58,-25 25,0 44,8 58,24 14,16 20,38 20,66 0,28 -7,51 -21,67 -14,16 -33,24 -57,24 -25,0 -45,-8 -58,-24 -14,-17 -21,-39 -21,-67zm32 0c0,44 16,66 47,66 14,0 25,-6 33,-18 9,-11 13,-27 13,-48 0,-43 -16,-64 -46,-64 -14,0 -26,5 -34,17 -8,11 -13,27 -13,47z"/>
   <path id="6" class="fil2" d="M1471 390l0 111c0,27 12,40 35,40 10,0 20,-3 28,-9 9,-5 14,-12 17,-20l0 -122 31 0 0 174 -31 0 0 -24c-3,7 -10,13 -21,19 -10,5 -21,8 -31,8 -19,0 -33,-5 -43,-16 -11,-11 -16,-27 -16,-47l0 -114 31 0z"/>
   <path id="7" class="fil2" d="M1719 419c-7,-4 -14,-7 -21,-7 -10,0 -20,5 -28,15 -8,10 -13,23 -13,37l0 100 -31 0 0 -174 31 0 0 27c12,-20 29,-31 51,-31 5,0 13,1 24,3l-13 30z"/>
   <path id="8" class="fil2" d="M1886 404l-15 21c-3,-3 -9,-6 -17,-9 -8,-2 -16,-4 -24,-4 -17,0 -30,6 -40,18 -10,12 -15,28 -15,48 0,21 5,36 15,47 10,11 24,16 42,16 14,0 28,-5 42,-16l12 26c-16,11 -37,16 -61,16 -24,0 -44,-8 -59,-24 -16,-16 -24,-37 -24,-65 0,-27 8,-50 25,-66 16,-17 38,-26 66,-26 9,0 19,2 30,6 10,4 18,8 23,12z"/>
   <path id="9" class="fil2" d="M2066 480l-126 0c0,20 6,36 17,47 10,9 22,14 38,14 17,0 32,-5 44,-15l13 22c-5,5 -12,9 -22,12 -12,5 -26,7 -41,7 -22,0 -41,-7 -56,-22 -17,-16 -26,-39 -26,-66 0,-29 9,-52 27,-69 15,-16 34,-24 55,-24 25,0 44,7 59,21 13,14 20,32 20,54 0,7 -1,13 -2,19zm-75 -68c-14,0 -26,5 -35,14 -9,8 -14,19 -15,32l96 0c0,-13 -4,-24 -11,-32 -9,-9 -21,-14 -35,-14z"/>
   <path id="10" class="fil2" d="M2117 533c4,0 8,2 11,5 4,3 5,7 5,12 0,4 -1,8 -5,11 -3,4 -7,5 -11,5 -5,0 -8,-1 -12,-5 -3,-3 -4,-7 -4,-11 0,-5 1,-9 4,-12 4,-3 7,-5 12,-5z"/>
   <path id="11" class="fil2" d="M2196 404c3,0 6,1 9,3 2,3 4,6 4,9 0,4 -2,7 -4,10 -3,2 -6,3 -9,3 -4,0 -7,-1 -9,-3 -3,-3 -4,-6 -4,-10 0,-3 1,-6 4,-9 2,-2 5,-3 9,-3zm-12 160l0 -99 -16 0 0 -17 37 0 0 116 -21 0z"/>
   <path id="12" class="fil2" d="M2301 467c-4,-3 -9,-4 -13,-4 -8,0 -14,3 -19,10 -6,7 -9,15 -9,24l0 67 -20 0 0 -116 20 0 0 18c8,-14 19,-21 34,-21 4,0 9,1 16,2l-9 20z"/>
   <g>
    <path class="fil3" d="M4245 4002c361,0 662,255 732,596l0 -1282c-105,-375 -376,-553 -841,-488 222,-112 527,-191 841,-202l0 -1 46 0 217 0c612,0 1113,501 1113,1114l0 3098 -1376 0 0 -1935c-70,341 -371,596 -732,596 -361,0 -663,-255 -733,-596l0 1245c105,375 377,553 841,488 -222,112 -526,191 -841,201l0 1 -45 0 -217 0c-613,0 -1114,-501 -1114,-1113l0 -3099 1376 0 0 1973c70,-341 372,-596 733,-596z"/>
    <path class="fil4" d="M6044 8262c2,11 -3,28 -13,48 -12,24 -24,37 -35,37 -8,-7 -19,-15 -33,-26 -15,-11 -22,-19 -22,-23l2 -4c4,-9 12,-26 23,-50 3,-6 9,-18 20,-36l5 -6c2,3 7,7 14,11 13,9 21,16 24,21 8,9 12,19 15,28zm-45 -452l0 15c0,46 18,69 55,69 11,0 22,-17 31,-49 2,-6 4,-9 6,-9 4,0 5,3 5,10 0,5 -1,13 -4,26 -19,85 -44,128 -77,128 -40,0 -60,-36 -60,-110 0,-47 10,-132 30,-255 5,-18 19,-52 42,-100l4 -2c1,2 0,7 -1,16l-4 27 -18 127c-6,45 -9,80 -9,107zm-3234 128c-6,28 -11,48 -16,60 -33,104 -89,177 -168,220 -30,17 -64,25 -103,25 -43,0 -76,-13 -100,-40 -23,-27 -35,-62 -35,-105 0,-69 29,-153 88,-254 7,-12 12,-17 16,-17 1,1 1,5 1,12 -2,7 -3,12 -4,17l-35 75c-16,36 -24,67 -24,93 0,73 40,109 120,109 85,0 153,-39 203,-116 16,-24 24,-52 25,-84l2 -75c1,-20 6,-45 17,-73l21 -41c6,-11 10,-18 14,-21 3,3 5,7 4,13l-5 36 -6 52c0,31 -5,69 -15,114zm-133 -54c1,3 1,7 1,12 0,12 -4,24 -12,36 -17,23 -29,36 -36,37 -2,0 -5,-1 -10,-5 -16,-11 -24,-17 -25,-19 -10,-7 -16,-10 -17,-10 -7,-5 -11,-10 -12,-14l24 -54c8,-14 14,-24 20,-33l6 -9c5,2 12,6 22,12 12,9 20,15 25,20 9,9 14,18 14,27zm281 -273c2,-3 5,-8 9,-16 1,-1 3,-3 6,-6 2,3 3,6 3,8l-5 35 -7 58 -11 93c-5,38 -13,69 -25,94l-24 50c-14,29 -26,44 -34,44l-3 -7c21,-73 35,-133 40,-180l8 -66 11 -32 32 -75zm193 679c2,11 -2,28 -12,48 -13,24 -25,37 -36,37 -7,-7 -18,-15 -33,-26 -14,-11 -22,-19 -22,-23l2 -4c5,-9 12,-26 23,-50 3,-6 10,-18 21,-36l4 -6c3,3 8,7 15,11 13,10 21,16 23,21 8,9 13,19 15,28zm107 -7c2,12 -2,28 -13,49 -12,24 -24,36 -35,36 -8,-6 -19,-15 -33,-26 -15,-11 -22,-18 -22,-22l2 -5c4,-9 12,-25 23,-49 3,-6 10,-18 21,-37l4 -5c3,3 7,6 14,11 14,9 21,16 24,20 8,10 13,19 15,28zm7 -597c-16,60 -35,95 -57,106l-40 20c-17,8 -32,26 -45,54 -10,23 -19,46 -28,69 -13,24 -30,40 -50,49 -13,6 -33,11 -60,14 -10,2 -18,2 -24,2 -8,0 -14,-2 -16,-6 -1,-5 12,-16 38,-33 5,-4 18,-11 36,-24 13,-8 21,-14 25,-16 20,-15 34,-27 41,-38 7,-10 16,-28 26,-53 11,-25 18,-42 23,-49 9,-13 22,-25 40,-37 21,-10 35,-18 42,-22 7,-5 17,-16 29,-33 12,-14 18,-21 19,-21 4,0 4,7 1,18zm127 -75c2,-3 5,-8 10,-16 0,-1 2,-3 5,-6 2,3 3,6 3,8l-5 35 -7 58 -11 93c-5,38 -13,69 -25,94l-24 50c-14,29 -26,44 -34,44l-3 -7c21,-73 35,-133 40,-180l8 -66 11 -32 32 -75zm389 59c2,12 -2,28 -12,49 -12,24 -24,36 -35,36 -8,-6 -19,-15 -33,-26 -15,-11 -22,-18 -22,-23l2 -4c4,-9 12,-25 23,-50 2,-5 9,-17 20,-36l5 -5c2,3 7,6 14,10 13,10 21,17 24,21 8,10 12,19 14,28zm107 -6c2,12 -2,28 -12,49 -13,24 -24,36 -36,36 -7,-6 -18,-15 -33,-26 -14,-11 -21,-19 -21,-23l2 -4c4,-9 11,-26 22,-50 3,-5 10,-17 21,-36l4 -5c3,3 8,6 15,10 13,10 21,17 24,21 7,10 12,19 14,28zm-182 226c118,0 215,-15 290,-46 39,-16 64,-34 77,-53 0,-1 3,-5 8,-14 6,-8 9,-12 11,-12 2,5 3,9 3,11 -4,33 -18,66 -42,100 -43,60 -139,99 -288,117 -40,5 -77,7 -111,7 -42,0 -74,-1 -95,-5 -65,-10 -98,-38 -98,-83 0,-13 4,-41 13,-83 4,-25 9,-37 14,-37 4,0 7,12 9,36 3,42 73,62 209,62zm513 -279c1,-3 4,-8 9,-16 1,-1 3,-3 6,-6 2,3 3,6 3,8l-6 35 -6 58 -11 93c-5,38 -13,69 -25,94l-24 50c-14,29 -26,44 -34,44l-3 -7c21,-73 35,-133 40,-180l7 -66 12 -32 32 -75zm235 210l-17 49c-25,52 -64,91 -116,117 -16,8 -33,14 -49,19 -3,1 -6,2 -9,2l-7 0c2,-8 5,-14 10,-18 13,-14 29,-26 45,-37l57 -50c24,-21 40,-38 48,-52l22 -38c7,-14 13,-21 17,-21 2,0 3,3 2,10 0,7 -1,13 -3,19zm59 -74c0,-3 4,-13 12,-30l28 -61c2,-4 6,-10 11,-17 30,24 48,45 54,60 10,18 15,38 15,62 0,74 -29,138 -88,194 -12,9 -29,20 -50,33 -14,7 -22,10 -24,8l1 -9c2,-5 13,-17 32,-37l32 -34 22 -29c12,-21 18,-38 18,-51 0,-26 -21,-55 -63,-89zm559 39c0,-13 -11,-19 -34,-19 -13,0 -26,10 -39,29l-31 49c20,4 41,-1 62,-15 28,-18 42,-33 42,-44zm-335 24l0 0 0 0c0,62 23,94 69,94 25,0 44,-10 57,-30 17,-28 31,-41 41,-38 16,6 27,10 34,10 7,0 16,-11 29,-33 4,-6 11,-19 22,-37 26,-40 51,-61 77,-61 26,0 39,12 39,36 0,35 -15,72 -45,110 -35,43 -74,65 -117,65 -22,0 -44,-7 -66,-19 -4,-1 -15,12 -33,42 -21,34 -47,51 -78,51 -48,0 -72,-36 -72,-110l0 0c0,-47 10,-132 30,-255 5,-18 18,-52 41,-100l4 -2c1,2 1,7 -1,16l-4 27 -17 127c-7,45 -10,80 -10,107zm1192 -374c16,-18 49,-46 96,-84l133 -107c25,-21 56,-48 91,-80 10,-9 37,-35 82,-79 48,-46 74,-72 78,-76 0,3 -1,6 -2,9 -9,41 -47,95 -113,162 -31,30 -77,71 -138,122 -3,2 -54,42 -154,120l-71 56c-29,23 -44,33 -46,31 11,-30 26,-55 44,-74zm-86 374l0 1 1 -1 0 15c0,46 18,69 55,69 12,0 22,-17 31,-49 2,-6 4,-9 6,-9 4,0 5,3 5,10 0,5 -1,13 -4,26 -19,85 -44,128 -77,128 -40,0 -60,-36 -60,-109 0,0 0,0 0,-1 0,-9 1,-28 4,-54l5 -51c0,-2 0,-4 -1,-4 -2,-1 -9,7 -22,24 -4,7 -12,19 -24,36 -45,60 -111,105 -197,135 -74,27 -153,40 -240,40l-15 0c-70,0 -114,-11 -133,-33 -11,-13 -17,-33 -17,-58 0,-69 6,-104 18,-104 3,15 10,34 20,56 18,21 64,31 135,31 38,0 70,-1 95,-3 92,-8 170,-27 235,-58 86,-41 139,-98 157,-172l14 -59c1,-4 8,-21 23,-53 5,-12 15,-28 28,-50l0 16c-1,2 -3,14 -7,35l-22 109c-3,14 -6,41 -9,81 -3,23 -4,42 -4,56zm156 -186c2,12 -2,28 -12,49 -13,24 -24,36 -35,36 -8,-6 -19,-15 -34,-26 -14,-11 -21,-19 -21,-23l2 -4c4,-9 11,-25 23,-50 2,-5 9,-17 20,-36l4 -5c3,3 8,6 15,10 13,10 21,17 24,21 7,10 12,19 14,28z"/>
   </g>
  </g>
 </g>
</svg>
