<?xml version="1.0" encoding="UTF-8" standalone="no"?>
<!-- Creator: CorelDRAW X6 -->

<svg
   xmlns:dc="http://purl.org/dc/elements/1.1/"
   xmlns:cc="http://creativecommons.org/ns#"
   xmlns:rdf="http://www.w3.org/1999/02/22-rdf-syntax-ns#"
   xmlns:svg="http://www.w3.org/2000/svg"
   xmlns="http://www.w3.org/2000/svg"
   xmlns:sodipodi="http://sodipodi.sourceforge.net/DTD/sodipodi-0.dtd"
   xmlns:inkscape="http://www.inkscape.org/namespaces/inkscape"
   xml:space="preserve"
   width="256"
   height="256"
   version="1.1"
   style="clip-rule:evenodd;fill-rule:evenodd;image-rendering:optimizeQuality;shape-rendering:geometricPrecision;text-rendering:geometricPrecision"
   viewBox="0 0 8500 11000"
   enable-background="new 74.885 -158.972 286 199.5"
   id="svg2"
   inkscape:version="0.91 r13725"
   sodipodi:docname="zarinpal.svg"><metadata
     id="metadata37"><rdf:RDF><cc:Work
         rdf:about=""><dc:format>image/svg+xml</dc:format><dc:type
           rdf:resource="http://purl.org/dc/dcmitype/StillImage" /></cc:Work></rdf:RDF></metadata><sodipodi:namedview
     pagecolor="#ffffff"
     bordercolor="#666666"
     borderopacity="1"
     objecttolerance="10"
     gridtolerance="10"
     guidetolerance="10"
     inkscape:pageopacity="0"
     inkscape:pageshadow="2"
     inkscape:window-width="1000"
     inkscape:window-height="699"
     id="namedview35"
     showgrid="false"
     inkscape:zoom="1.4064461"
     inkscape:cx="207.39044"
     inkscape:cy="133.73704"
     inkscape:window-x="358"
     inkscape:window-y="0"
     inkscape:window-maximized="0"
     inkscape:current-layer="svg2" /><defs
     id="defs4"><style
       type="text/css"
       id="style6"><![CDATA[
    .fil0 {fill:none}
    .fil1 {fill:#E6E7E8}
    .fil3 {fill:#FDC645}
    .fil2 {fill:#4B4B4D;fill-rule:nonzero}
   ]]></style></defs><rect
     style="fill:none"
     id="rect10"
     height="11693"
     width="8268"
     y="-346"
     x="116"
     class="fil0" /><g
     id="__x0023_Layer_x0020_3"
     transform="matrix(2.4521119,0,0,3.4078751,-6171.4757,-13243.313)"
     style="fill:#000000"><metadata
       id="CorelCorpID_1Corel-Layer" /><g
       id="zarinpal-flat.svg"
       style="fill:#000000"><g
         id="g31"
         style="fill:#000000"><path
           class="fil3"
           d="m 3501,4970 2610,0 28,-185 c 0,-1 0,-2 0,-5 0,-11 -7,-23 -17,-33 -15,-15 -35,-25 -57,-28 -4,-1 -9,-1 -14,-1 l -2429,0 124,-257 2305,0 c 17,0 34,1 51,4 76,11 147,47 200,99 57,56 94,132 94,216 0,14 -1,27 -3,42 l -258,1737 c -12,87 -51,169 -110,228 -59,59 -137,96 -231,96 l -12,0 -2195,0 -1280,0 -203,0 87,-184 1103,-2325 -1015,0 0,-257 1218,0 203,0 -87,184 -1103,2325 1077,0 2195,0 12,0 c 20,0 37,-8 49,-21 20,-19 34,-49 38,-84 l 128,-861 -2841,0 333,-690 z m 207,1250 1631,0 c 39,0 71,32 71,71 l 0,0 c 0,40 -32,72 -71,72 l -1631,0 c -39,0 -71,-32 -71,-72 l 0,0 c 0,-39 32,-71 71,-71 z m 1354,-387 313,0 c 39,0 72,32 72,71 l 0,0 c 0,40 -33,72 -72,72 l -313,0 c -39,0 -71,-32 -71,-72 l 0,0 c 0,-39 32,-71 71,-71 z m -1111,0 827,0 c 40,0 72,32 72,71 l 0,0 c 0,40 -32,72 -72,72 l -827,0 c -39,0 -72,-32 -72,-72 l 0,0 c 0,-39 33,-71 72,-71 z"
           id="path33"
           inkscape:connector-curvature="0"
           style="fill:#000000" /></g></g></g></svg>